# xmcd
#
# Track frame offsets:
#	150
#	7948
#	29847
#	61297
#	87357
#	114057
#	146247
#	174167
#	211386
#	232918
#
# Disc length: 3535 seconds
#
# Revision: 0
# Processed by: cddbd v1.5.2PL0 Copyright (c) Steve Scherf et al.
# Submitted via: EasyCDDAExtractor 15.2.1.1
#
DISCID=7b0dcd0a
DTITLE=Shaderwan Code - Kad procvatu behari
DYEAR=1900
DGENRE=Soul
TTITLE0=Sarajevo
TTITLE1=Puče puška
TTITLE2=Niz polje idu babo sejmeni
TTITLE3=Džaferbeg
TTITLE4=Lijepa Alma
TTITLE5=Kazuj cesto, džerimo
TTITLE6=Moj golube
TTITLE7=Dok čekaš sabah sa Šejtanom
TTITLE8=Džezalah
TTITLE9=Kad procvatu behari
EXTD=
EXTT0=
EXTT1=
EXTT2=
EXTT3=
EXTT4=
EXTT5=
EXTT6=
EXTT7=
EXTT8=
EXTT9=
PLAYORDER=
